<?xml version="1.0" encoding="utf-8"?>
<!-- Generator: Adobe Illustrator 26.2.1, SVG Export Plug-In . SVG Version: 6.00 Build 0)  -->
<svg version="1.1" id="katman_1" xmlns="http://www.w3.org/2000/svg" xmlns:xlink="http://www.w3.org/1999/xlink" x="0px" y="0px"
	 viewBox="0 0 1200 800" style="enable-background:new 0 0 1200 800;" xml:space="preserve">
<style type="text/css">
	.st0{fill:#FFFFFF;}
	.st1{fill:#100F0D;}
</style>
<path class="st0" d="M866.7,400c0-147.3-119.4-266.7-266.7-266.7c-147.3,0-266.7,119.4-266.7,266.7c0,133.1,97.5,243.4,225,263.4
	V477.1h-67.7V400h67.7v-58.8c0-66.8,39.8-103.8,100.7-103.8c29.2,0,59.7,5.2,59.7,5.2v65.6h-33.6c-33.1,0-43.5,20.6-43.5,41.6v50h74
	l-11.8,77.1h-62.1v186.3C769.2,643.4,866.7,533.1,866.7,400"/>
<path class="st1" d="M333.3,133.3"/>
</svg>
