<?xml version="1.0" encoding="utf-8"?>
<!-- Generator: Adobe Illustrator 26.2.1, SVG Export Plug-In . SVG Version: 6.00 Build 0)  -->
<svg version="1.1" id="katman_1" xmlns="http://www.w3.org/2000/svg" xmlns:xlink="http://www.w3.org/1999/xlink" x="0px" y="0px"
	 viewBox="0 0 24 24" style="enable-background:new 0 0 24 24;" xml:space="preserve">
<style type="text/css">
	.st0{fill:#FFFFFF;}
</style>
<path class="st0" d="M18.8,11.4c-0.5,0.2-1,0.4-1.6,0.5c0.6-0.4,1-0.9,1.2-1.6c-0.6,0.4-1.1,0.6-1.8,0.7c-0.5-0.6-1.2-0.9-2-0.9
	c-1.8,0-3.1,1.8-2.7,3.5c-2.4-0.1-4.4-1.3-5.8-3.1c-0.7,1.4-0.4,3.1,0.8,3.9c-0.5,0-0.9-0.1-1.2-0.4c-0.1,1.4,0.9,2.6,2.2,2.9
	C7.6,17,7.1,17,6.7,17c0.3,1.2,1.4,2,2.6,2c-1.2,0.9-2.7,1.4-4.1,1.2c1.2,0.8,2.7,1.3,4.2,1.3c5.1,0,8.1-4.5,7.9-8.6
	C17.9,12.4,18.4,11.9,18.8,11.4z"/>
</svg>
